<svg width="23" height="24" viewBox="0 0 23 24" fill="none" xmlns="http://www.w3.org/2000/svg">
<path d="M4.40527 4.96592C4.40527 4.21143 4.705 3.48783 5.2385 2.95432C5.77201 2.42082 6.49561 2.12109 7.2501 2.12109C8.0046 2.12109 8.72819 2.42082 9.2617 2.95432C9.79521 3.48783 10.0949 4.21143 10.0949 4.96592C10.0949 5.72042 9.79521 6.44401 9.2617 6.97752C8.72819 7.51103 8.0046 7.81075 7.2501 7.81075C6.49561 7.81075 5.77201 7.51103 5.2385 6.97752C4.705 6.44401 4.40527 5.72042 4.40527 4.96592Z" fill="#787878"/>
<path d="M14.0481 7.21366L14.1078 7.25917C14.7113 7.70653 15.4673 7.89701 16.2107 7.78904C16.9542 7.68107 17.6247 7.28341 18.0761 6.68286C18.5274 6.08231 18.7229 5.32761 18.6198 4.58347C18.5167 3.83933 18.1235 3.16616 17.526 2.71088C16.9284 2.25559 16.175 2.05515 15.4302 2.1533C14.6854 2.25145 14.0097 2.64021 13.5504 3.23476C13.0912 3.8293 12.8858 4.58135 12.979 5.32679C13.0723 6.07222 13.4566 6.75052 14.0481 7.21366Z" fill="#787878"/>
<path d="M9.05288 9.23509C9.23154 8.89679 9.4766 8.598 9.7734 8.35659C10.0702 8.11519 10.4126 7.93613 10.7802 7.83013C11.1478 7.72413 11.533 7.69336 11.9128 7.73967C12.2926 7.78598 12.6591 7.90841 12.9905 8.09964C13.3218 8.29088 13.6112 8.54698 13.8413 8.85263C14.0714 9.15829 14.2375 9.50721 14.3296 9.87853C14.4217 10.2499 14.438 10.6359 14.3775 11.0137C14.3169 11.3915 14.1808 11.7531 13.9773 12.0771C13.5857 12.7003 12.9679 13.1475 12.2535 13.3247C11.5392 13.5019 10.7839 13.3954 10.1465 13.0275C9.50901 12.6596 9.03894 12.059 8.83501 11.3518C8.63109 10.6446 8.70918 9.88591 9.05288 9.23509Z" fill="#787878"/>
<path d="M3.69417 9.23438H7.49201C7.33555 9.67959 7.2502 10.1589 7.2502 10.6568C7.2502 11.7492 7.66128 12.7477 8.33693 13.5016H7.96141C7.22807 13.5015 6.51261 13.728 5.91297 14.1502C5.31333 14.5724 4.85881 15.1695 4.61162 15.86C4.13417 15.6682 3.68712 15.408 3.28451 15.0876C2.21486 14.227 1.56055 12.9554 1.56055 11.368C1.56055 10.8021 1.78534 10.2594 2.18547 9.8593C2.5856 9.45917 3.1283 9.23438 3.69417 9.23438V9.23438Z" fill="#787878"/>
<path d="M15.0738 13.5016C16.6171 13.5016 17.9314 14.4845 18.4221 15.86C18.9057 15.6623 19.3538 15.4048 19.7507 15.0876C20.8203 14.227 21.4746 12.9554 21.4746 11.368C21.4746 10.8021 21.2498 10.2594 20.8497 9.8593C20.4496 9.45917 19.9069 9.23438 19.341 9.23438H15.5432C15.6996 9.67959 15.785 10.1589 15.785 10.6568C15.7863 11.7067 15.3992 12.72 14.6982 13.5016H15.0738Z" fill="#787878"/>
<path d="M17.0467 16.2419C17.1505 16.4922 17.2074 16.7682 17.2074 17.0555C17.2074 18.6429 16.5546 19.9146 15.4835 20.7751C14.4295 21.6215 13.0156 22.034 11.5178 22.034C10.02 22.034 8.60611 21.6215 7.5521 20.7751C6.48244 19.9146 5.82813 18.6429 5.82813 17.0555C5.82738 16.7751 5.88206 16.4973 5.98902 16.2381C6.09597 15.9789 6.25311 15.7434 6.45138 15.5451C6.64966 15.3469 6.88516 15.1897 7.14436 15.0828C7.40357 14.9758 7.68135 14.9211 7.96175 14.9219H15.0738C15.4964 14.9218 15.9095 15.0472 16.2608 15.2822C16.612 15.5172 16.8856 15.8512 17.0467 16.2419Z" fill="#787878"/>
</svg>
