<svg width="17" height="18" viewBox="0 0 17 18" fill="none" xmlns="http://www.w3.org/2000/svg">
<path fill-rule="evenodd" clip-rule="evenodd" d="M8.53597 0.816406C6.39429 0.816406 4.44321 1.52382 3.28869 2.10179C3.18438 2.15395 3.08718 2.20516 2.99662 2.25447C2.81739 2.35214 2.66472 2.44317 2.54334 2.5233L3.8567 4.45684L4.47498 4.70291C6.89119 5.92192 10.1314 5.92192 12.5481 4.70291L13.2499 4.33878L14.4916 2.5233C14.2344 2.35548 13.9669 2.20394 13.6908 2.06955C12.542 1.49774 10.6374 0.816406 8.53645 0.816406H8.53597ZM5.48158 3.00503C5.0165 2.918 4.55716 2.80273 4.1061 2.65985C5.18761 2.17955 6.7992 1.66985 8.53597 1.66985C9.73886 1.66985 10.8763 1.91451 11.817 2.2246C10.7146 2.37964 9.5383 2.64279 8.41744 2.96662C7.53554 3.22171 6.50477 3.19421 5.48158 3.00503ZM13.0488 5.40606L12.9322 5.46485C10.2742 6.80572 6.74847 6.80572 4.09045 5.46485L3.97998 5.40891C-0.0132091 9.79042 -3.06192 17.884 8.53597 17.884C20.1339 17.884 17.0107 9.63917 13.0488 5.40606ZM8.04334 9.35089C7.79184 9.35089 7.55065 9.4508 7.37281 9.62863C7.19497 9.80647 7.09507 10.0477 7.09507 10.2992C7.09507 10.5507 7.19497 10.7919 7.37281 10.9697C7.55065 11.1475 7.79184 11.2474 8.04334 11.2474V9.35089ZM8.99162 8.40261V7.92848H8.04334V8.40261C7.54035 8.40261 7.05795 8.60243 6.70228 8.9581C6.34661 9.31377 6.14679 9.79617 6.14679 10.2992C6.14679 10.8022 6.34661 11.2846 6.70228 11.6402C7.05795 11.9959 7.54035 12.1957 8.04334 12.1957V14.0923C7.63084 14.0923 7.27951 13.8291 7.14864 13.4602C7.12923 13.3999 7.09791 13.344 7.05653 13.296C7.01516 13.248 6.96457 13.2087 6.90776 13.1806C6.85096 13.1524 6.78908 13.136 6.7258 13.1322C6.66252 13.1284 6.59911 13.1373 6.53934 13.1584C6.47956 13.1795 6.42463 13.2124 6.37779 13.2551C6.33095 13.2978 6.29315 13.3495 6.26663 13.4071C6.24011 13.4647 6.22541 13.527 6.22339 13.5904C6.22137 13.6537 6.23209 13.7169 6.25489 13.776C6.38568 14.1458 6.62789 14.466 6.94818 14.6925C7.26847 14.9189 7.65108 15.0405 8.04334 15.0405V15.5147H8.99162V15.0405C9.49461 15.0405 9.97701 14.8407 10.3327 14.4851C10.6884 14.1294 10.8882 13.647 10.8882 13.144C10.8882 12.641 10.6884 12.1586 10.3327 11.8029C9.97701 11.4473 9.49461 11.2474 8.99162 11.2474V9.35089C9.40412 9.35089 9.75545 9.61404 9.88632 9.98292C9.90573 10.0433 9.93705 10.0991 9.97843 10.1471C10.0198 10.1952 10.0704 10.2344 10.1272 10.2626C10.184 10.2907 10.2459 10.3072 10.3092 10.311C10.3724 10.3148 10.4358 10.3059 10.4956 10.2848C10.5554 10.2636 10.6103 10.2308 10.6572 10.188C10.704 10.1453 10.7418 10.0936 10.7683 10.036C10.7949 9.97846 10.8096 9.91615 10.8116 9.85278C10.8136 9.78942 10.8029 9.72629 10.7801 9.66714C10.6493 9.29732 10.4071 8.97715 10.0868 8.75068C9.76649 8.52422 9.38388 8.40262 8.99162 8.40261ZM8.99162 12.1957V14.0923C9.24312 14.0923 9.48431 13.9924 9.66215 13.8145C9.83999 13.6367 9.93989 13.3955 9.93989 13.144C9.93989 12.8925 9.83999 12.6513 9.66215 12.4735C9.48431 12.2956 9.24312 12.1957 8.99162 12.1957Z" fill="#787878"/>
</svg>
