<svg width="23" height="23" viewBox="0 0 23 23" fill="none" xmlns="http://www.w3.org/2000/svg">
<path d="M22.76 11.38L18.208 6.828V10.242H9.104V12.518H18.208V15.932L22.76 11.38ZM20.484 18.208C19.0509 20.1188 17.053 21.5302 14.7731 22.2424C12.4933 22.9545 10.0472 22.9313 7.78133 22.176C5.51543 21.4207 3.54462 19.9716 2.14806 18.034C0.751505 16.0964 0 13.7685 0 11.38C0 8.99154 0.751505 6.66362 2.14806 4.726C3.54462 2.78838 5.51543 1.33928 7.78133 0.583984C10.0472 -0.171314 12.4933 -0.194526 14.7731 0.517636C17.053 1.2298 19.0509 2.64123 20.484 4.552H17.3773C16.0632 3.39313 14.4427 2.63805 12.7102 2.37735C10.9776 2.11665 9.20668 2.36141 7.6098 3.08227C6.01292 3.80313 4.65797 4.96945 3.70753 6.44129C2.75708 7.91313 2.25153 9.62796 2.25153 11.38C2.25153 13.132 2.75708 14.8469 3.70753 16.3187C4.65797 17.7905 6.01292 18.9569 7.6098 19.6777C9.20668 20.3986 10.9776 20.6434 12.7102 20.3827C14.4427 20.122 16.0632 19.3669 17.3773 18.208H20.484Z" fill="#787878"/>
</svg>
