<svg width="36" height="34" viewBox="0 0 36 34" fill="none" xmlns="http://www.w3.org/2000/svg">
<path d="M1.75191 12.0293H34.2479C34.2479 12.0293 35.1559 11.2853 34.2479 10.3373L18.0039 0.777344L1.75191 10.3333C1.75191 10.3333 0.627906 11.3453 1.75191 12.0293ZM35.3079 31.9133L33.3479 30.2093C33.2399 30.1173 32.9959 30.0413 32.7959 30.0413L3.60391 30.0853C3.40791 30.0853 3.14791 30.1573 3.02791 30.2453L0.719906 31.9213C0.599906 32.0093 0.503906 32.1693 0.503906 32.2773V33.0253C0.503906 33.1333 0.663906 33.2253 0.863906 33.2253H35.1479C35.3439 33.2253 35.5079 33.1373 35.5079 33.0253V32.2813C35.4999 32.1693 35.4119 32.0053 35.3079 31.9133ZM30.1599 13.3533H33.1519V28.3493H30.1599V13.3533ZM25.2639 13.3533H28.2559V28.3493H25.2639V13.3533ZM8.20791 13.3533H11.1999V28.3493H8.20791V13.3533ZM3.31191 13.3533H6.30391V28.3493H3.31191V13.3533ZM18.0639 28.3293C18.2919 28.3293 18.5199 28.2973 18.7359 28.2333V26.4173C19.6639 26.2093 20.3719 25.8093 20.8599 25.2173C21.3439 24.6293 21.5879 23.9053 21.5879 23.0493C21.5879 22.5373 21.5239 22.1133 21.3999 21.7733C21.2759 21.4333 21.0999 21.1453 20.8759 20.9133C20.6519 20.6773 20.3759 20.4773 20.0519 20.3093C19.7279 20.1413 19.3679 19.9733 18.9719 19.8093L18.0319 19.4173C17.8759 19.3533 17.7199 19.2853 17.5639 19.2133C17.4079 19.1413 17.2679 19.0533 17.1399 18.9533C17.0159 18.8533 16.9159 18.7333 16.8439 18.5853C16.7719 18.4373 16.7359 18.2613 16.7359 18.0533C16.7359 17.8133 16.7839 17.6173 16.8759 17.4653C16.9679 17.3133 17.0879 17.1973 17.2359 17.1133C17.3839 17.0293 17.5479 16.9733 17.7279 16.9493C17.9119 16.9253 18.0919 16.9093 18.2679 16.9093C18.5599 16.9093 18.8199 16.9213 19.0519 16.9493C19.2799 16.9773 19.4879 17.0093 19.6719 17.0493C19.8559 17.0893 20.0279 17.1453 20.1879 17.2053C20.3479 17.2693 20.5079 17.3293 20.6639 17.3933C20.9359 16.8093 21.1039 16.2133 21.1639 15.6093C20.7359 15.4613 20.3279 15.3453 19.9439 15.2573C19.5559 15.1693 19.1559 15.1093 18.7359 15.0773V13.4653C18.4959 13.4013 18.2679 13.3733 18.0479 13.3733C17.8199 13.3733 17.5919 13.4053 17.3759 13.4653V15.1253C16.4359 15.2413 15.6999 15.5693 15.1679 16.1133C14.6359 16.6573 14.3679 17.3973 14.3679 18.3373C14.3679 18.7773 14.4239 19.1453 14.5319 19.4493C14.6399 19.7533 14.7999 20.0173 14.9999 20.2413C15.2039 20.4653 15.4479 20.6573 15.7279 20.8213C16.0079 20.9853 16.3239 21.1373 16.6679 21.2853L17.4999 21.6453C17.6759 21.7293 17.8599 21.8093 18.0479 21.8813C18.2359 21.9533 18.4039 22.0413 18.5559 22.1493C18.7079 22.2533 18.8319 22.3853 18.9319 22.5493C19.0319 22.7093 19.0799 22.9173 19.0799 23.1693C19.0799 23.6693 18.8999 24.0333 18.5399 24.2573C18.1799 24.4813 17.6719 24.5933 17.0119 24.5933C16.5719 24.5933 16.1599 24.5613 15.7759 24.4933C15.3879 24.4253 14.9759 24.3013 14.5399 24.1253C14.4239 24.4613 14.3239 24.7813 14.2439 25.0893C14.1599 25.3973 14.1039 25.7013 14.0719 26.0053C14.3319 26.1093 14.5839 26.1973 14.8239 26.2733C15.0639 26.3453 15.3079 26.4053 15.5519 26.4533C15.7959 26.5013 16.0559 26.5333 16.3279 26.5533C16.5999 26.5733 16.9079 26.5853 17.2519 26.5853H17.3759V28.2453C17.6039 28.2973 17.8359 28.3293 18.0639 28.3293Z" fill="url(#paint0_linear_2_70)"/>
<defs>
<linearGradient id="paint0_linear_2_70" x1="0.503906" y1="17.0013" x2="35.5079" y2="17.0013" gradientUnits="userSpaceOnUse">
<stop stop-color="#3374AB"/>
<stop offset="0.598958" stop-color="#5AB1F3"/>
<stop offset="1" stop-color="#6BD8FE"/>
</linearGradient>
</defs>
</svg>
