<svg width="22" height="22" viewBox="0 0 22 22" fill="none" xmlns="http://www.w3.org/2000/svg">
<path d="M19.2223 17.382C19.1479 17.214 19.1311 16.9692 19.1935 16.7964C19.6759 15.4284 20.1703 14.0676 20.6839 12.7092C21.2311 11.2668 21.6559 9.81479 21.4423 8.23799C21.1999 6.44759 20.4655 4.89719 19.1431 3.67319C18.4975 3.07799 17.7415 2.60999 16.9927 2.05319C17.0503 1.89479 17.1439 1.64759 17.2351 1.40039C17.3839 0.992389 17.2687 0.673189 16.9255 0.545989C16.5727 0.416389 16.2775 0.562789 16.1119 0.958789C16.0039 1.21319 15.9079 1.46999 15.8023 1.73399C14.8039 1.48919 13.8175 1.39079 12.8167 1.53479C9.8335 1.96199 7.6807 3.52679 6.5167 6.31799C5.8039 8.03399 5.2159 9.80279 4.5823 11.55C4.5055 11.766 4.3831 11.8932 4.1743 11.9868C3.1135 12.462 2.0599 12.9516 0.999097 13.434C0.715897 13.5612 0.504697 13.7412 0.511897 14.0772C0.519097 14.4252 0.763897 14.5644 1.0519 14.6676C3.0319 15.378 5.0071 16.0956 6.9919 16.7916C7.2895 16.8972 7.3927 17.0148 7.3759 17.3436C7.2751 19.5468 9.3415 21.1884 11.4799 20.6292C12.3463 20.4036 13.0063 19.8972 13.5031 19.1436C13.6063 19.1796 13.6999 19.2132 13.7935 19.2444C15.8047 19.9644 17.8159 20.6844 19.8271 21.4092C20.1295 21.5172 20.4079 21.5628 20.6575 21.306C20.9167 21.0372 20.8087 20.7612 20.6743 20.478C20.1799 19.4532 19.6879 18.4236 19.2223 17.382ZM10.1191 19.4604C9.1615 19.1844 8.5279 18.3252 8.5951 17.346C9.8479 17.7924 11.0743 18.2316 12.3055 18.6708C11.9551 19.3428 10.9495 19.7004 10.1191 19.4604Z" fill="#CACCCF"/>
</svg>
