<svg width="36" height="36" viewBox="0 0 36 36" fill="none" xmlns="http://www.w3.org/2000/svg">
<path d="M18 11C16.292 11 14.766 11.78 13.758 13C13.136 13.7538 12.7261 14.6597 12.5704 15.6246C12.4148 16.5894 12.5191 17.5783 12.8725 18.4895C13.2259 19.4006 13.8157 20.2012 14.5813 20.8087C15.3468 21.4162 16.2604 21.8088 17.228 21.946C18.5433 19.4087 20.7917 17.4808 23.5 16.568V16.5C23.5 15.17 23.028 13.95 22.242 13C21.234 11.78 19.708 11 18 11ZM35.354 19.844C34.1563 18.4423 32.6247 17.3649 30.9008 16.7113C29.1768 16.0576 27.316 15.8488 25.49 16.104C25.4347 15.0195 25.1432 13.9602 24.636 13H33C33.7957 13 34.5587 13.3161 35.1213 13.8787C35.6839 14.4413 36 15.2044 36 16V17C36 17.96 35.78 18.928 35.354 19.844ZM16.414 24C16.144 24.954 16 25.96 16 27C16 30.594 17.722 33.784 20.388 35.79C19.5999 35.9316 18.8007 36.0019 18 36C11.72 36 8 31.942 8 28V27C7.99894 26.6057 8.07582 26.2152 8.22621 25.8507C8.3766 25.4862 8.59754 25.1551 8.87633 24.8763C9.15511 24.5975 9.48625 24.3766 9.8507 24.2262C10.2152 24.0758 10.6057 23.9989 11 24H16.414ZM6.63 24.568C2.41 23.426 0 20.174 0 17V16C0 15.2044 0.316071 14.4413 0.87868 13.8787C1.44129 13.3161 2.20435 13 3 13H11.366C10.7958 14.0784 10.4985 15.2801 10.5 16.5C10.4987 17.5328 10.7112 18.5546 11.1243 19.5012C11.5373 20.4478 12.1419 21.2986 12.9 22H11C10.1088 21.9998 9.2338 22.2377 8.46548 22.6892C7.69715 23.1407 7.06346 23.7894 6.63 24.568ZM10 0C11.4587 0 12.8576 0.579463 13.8891 1.61091C14.9205 2.64236 15.5 4.04131 15.5 5.5C15.5 6.95869 14.9205 8.35764 13.8891 9.38909C12.8576 10.4205 11.4587 11 10 11C8.54131 11 7.14236 10.4205 6.11091 9.38909C5.07946 8.35764 4.5 6.95869 4.5 5.5C4.5 4.04131 5.07946 2.64236 6.11091 1.61091C7.14236 0.579463 8.54131 0 10 0ZM26 0C27.4587 0 28.8576 0.579463 29.8891 1.61091C30.9205 2.64236 31.5 4.04131 31.5 5.5C31.5 6.95869 30.9205 8.35764 29.8891 9.38909C28.8576 10.4205 27.4587 11 26 11C24.5413 11 23.1424 10.4205 22.1109 9.38909C21.0795 8.35764 20.5 6.95869 20.5 5.5C20.5 4.04131 21.0795 2.64236 22.1109 1.61091C23.1424 0.579463 24.5413 0 26 0ZM27 36C29.3869 36 31.6761 35.0518 33.364 33.364C35.0518 31.6761 36 29.3869 36 27C36 24.6131 35.0518 22.3239 33.364 20.636C31.6761 18.9482 29.3869 18 27 18C24.6131 18 22.3239 18.9482 20.636 20.636C18.9482 22.3239 18 24.6131 18 27C18 29.3869 18.9482 31.6761 20.636 33.364C22.3239 35.0518 24.6131 36 27 36ZM27 22C27.2652 22 27.5196 22.1054 27.7071 22.2929C27.8946 22.4804 28 22.7348 28 23V26H31C31.2652 26 31.5196 26.1054 31.7071 26.2929C31.8946 26.4804 32 26.7348 32 27C32 27.2652 31.8946 27.5196 31.7071 27.7071C31.5196 27.8946 31.2652 28 31 28H28V31C28 31.2652 27.8946 31.5196 27.7071 31.7071C27.5196 31.8946 27.2652 32 27 32C26.7348 32 26.4804 31.8946 26.2929 31.7071C26.1054 31.5196 26 31.2652 26 31V28H23C22.7348 28 22.4804 27.8946 22.2929 27.7071C22.1054 27.5196 22 27.2652 22 27C22 26.7348 22.1054 26.4804 22.2929 26.2929C22.4804 26.1054 22.7348 26 23 26H26V23C26 22.7348 26.1054 22.4804 26.2929 22.2929C26.4804 22.1054 26.7348 22 27 22Z" fill="url(#paint0_linear_2_54)"/>
<defs>
<linearGradient id="paint0_linear_2_54" x1="1.41596e-08" y1="18" x2="36" y2="18" gradientUnits="userSpaceOnUse">
<stop stop-color="#3374AB"/>
<stop offset="0.598958" stop-color="#5AB1F3"/>
<stop offset="1" stop-color="#6BD8FE"/>
</linearGradient>
</defs>
</svg>
