<svg width="20" height="21" viewBox="0 0 20 21" fill="none" xmlns="http://www.w3.org/2000/svg">
<path d="M11.9402 0.566406V5.54485C11.9402 6.11073 12.165 6.65342 12.5651 7.05355C12.9652 7.45368 13.5079 7.67848 14.0738 7.67848H19.0523V18.3466C19.0523 18.9125 18.8275 19.4551 18.4273 19.8553C18.0272 20.2554 17.4845 20.4802 16.9186 20.4802H11.4608C12.9747 19.4184 14.0635 17.8548 14.5342 16.0666C15.0048 14.2785 14.8269 12.3814 14.032 10.712C13.2371 9.04252 11.8765 7.70858 10.1917 6.94679C8.50683 6.185 6.60663 6.0446 4.82812 6.5505V2.70003C4.82812 2.13416 5.05292 1.59146 5.45305 1.19133C5.85318 0.791198 6.39587 0.566406 6.96175 0.566406H11.9402Z" fill="#787878"/>
<path d="M13.3623 0.921875V5.54472C13.3623 5.73334 13.4372 5.91424 13.5706 6.04762C13.704 6.181 13.8849 6.25593 14.0735 6.25593H18.6964L13.3623 0.921875Z" fill="#787878"/>
<path d="M13.3623 14.0805C13.3623 15.7782 12.6879 17.4062 11.4875 18.6066C10.2871 19.807 8.65902 20.4814 6.96141 20.4814C5.26379 20.4814 3.63571 19.807 2.43532 18.6066C1.23492 17.4062 0.560547 15.7782 0.560547 14.0805C0.560547 12.3829 1.23492 10.7549 2.43532 9.55446C3.63571 8.35406 5.26379 7.67969 6.96141 7.67969C8.65902 7.67969 10.2871 8.35406 11.4875 9.55446C12.6879 10.7549 13.3623 12.3829 13.3623 14.0805V14.0805ZM7.67262 11.2357C7.67262 11.0471 7.59769 10.8662 7.46431 10.7328C7.33093 10.5994 7.15003 10.5245 6.96141 10.5245C6.77279 10.5245 6.59189 10.5994 6.45851 10.7328C6.32513 10.8662 6.2502 11.0471 6.2502 11.2357V13.3693H4.11658C3.92796 13.3693 3.74706 13.4443 3.61368 13.5776C3.48031 13.711 3.40537 13.8919 3.40537 14.0805C3.40537 14.2692 3.48031 14.4501 3.61368 14.5834C3.74706 14.7168 3.92796 14.7918 4.11658 14.7918H6.2502V16.9254C6.2502 17.114 6.32513 17.2949 6.45851 17.4283C6.59189 17.5617 6.77279 17.6366 6.96141 17.6366C7.15003 17.6366 7.33093 17.5617 7.46431 17.4283C7.59769 17.2949 7.67262 17.114 7.67262 16.9254V14.7918H9.80624C9.99486 14.7918 10.1758 14.7168 10.3091 14.5834C10.4425 14.4501 10.5174 14.2692 10.5174 14.0805C10.5174 13.8919 10.4425 13.711 10.3091 13.5776C10.1758 13.4443 9.99486 13.3693 9.80624 13.3693H7.67262V11.2357Z" fill="#787878"/>
</svg>
