<svg width="14" height="14" viewBox="0 0 14 14" fill="none" xmlns="http://www.w3.org/2000/svg">
<path d="M11.2028 9.85064C11.1006 9.74844 11.0866 9.57204 11.165 9.45024C11.781 8.50244 12.1422 7.37404 12.1422 6.16164C12.1422 2.81284 9.4178 0.0898438 6.0718 0.0898438C2.723 0.0898438 0 2.81284 0 6.16164C0 9.50904 2.723 12.232 6.0718 12.232C7.3752 12.232 8.582 11.8134 9.5732 11.1106C9.6894 11.0266 9.8644 11.0378 9.9666 11.1386L12.1366 13.3086C12.1506 13.3226 12.166 13.3366 12.1814 13.3478C12.2066 13.3688 12.3116 13.4668 12.4124 13.569L12.67 13.8252C12.7722 13.926 12.9374 13.926 13.0382 13.8252L13.923 12.9404C14.0252 12.8382 14.0252 12.673 13.9244 12.5708L11.2028 9.85064ZM9.744 8.98964C9.5438 9.25004 9.3184 9.48804 9.0692 9.69944C8.26 10.3868 7.2142 10.804 6.0718 10.804C3.5112 10.804 1.428 8.72084 1.428 6.16164C1.428 3.60244 3.5112 1.51784 6.0718 1.51784C8.631 1.51784 10.7142 3.60104 10.7142 6.16164C10.7142 7.22564 10.3488 8.20564 9.744 8.98964Z" fill="url(#paint0_linear_2_34)"/>
<defs>
<linearGradient id="paint0_linear_2_34" x1="5.50644e-09" y1="6.99534" x2="13.9998" y2="6.99534" gradientUnits="userSpaceOnUse">
<stop stop-color="#3374AB"/>
<stop offset="0.598958" stop-color="#5AB1F3"/>
<stop offset="1" stop-color="#6BD8FE"/>
</linearGradient>
</defs>
</svg>
