<svg width="23" height="14" viewBox="0 0 23 14" fill="none" xmlns="http://www.w3.org/2000/svg">
<path d="M22.1827 7.394V7.18811C22.1827 7.02844 22.1656 6.99644 22.0828 6.95341C21.9361 6.87426 21.7841 6.80535 21.628 6.74716C21.5963 6.73614 21.5611 6.72653 21.5298 6.71587C20.1387 2.15632 18.6669 0.0429688 18.0268 0.0429688C17.6808 0.0429688 17.5627 0.283001 17.4365 0.834542C17.1328 2.15596 17.4173 2.57415 17.5976 2.758C17.8465 3.0119 18.2512 2.80352 18.2512 1.3932C18.5221 2.05604 19.6049 4.09365 20.4435 6.47299C19.0424 6.2639 17.2516 6.28203 16.284 6.36951C14.9729 6.48721 13.879 6.78877 12.9843 7.25923C12.1465 7.68809 10.8891 7.68809 10.0513 7.25923C9.15554 6.78877 8.06241 6.48721 6.75308 6.36951C5.78335 6.28239 3.99218 6.2639 2.59216 6.47299C3.42997 4.094 4.51242 2.0564 4.78304 1.3932C4.78304 2.80352 5.18843 3.0119 5.43699 2.758C5.61693 2.57415 5.90248 2.15596 5.59879 0.834542C5.47149 0.283001 5.35414 0.0429688 5.00707 0.0429688C4.36627 0.0429688 2.89585 2.15632 1.50437 6.71658C1.47344 6.72689 1.4393 6.73649 1.40872 6.74716C1.25296 6.80299 1.10041 6.87553 0.952833 6.95341C0.869621 6.99644 0.852908 7.02844 0.852908 7.18811V7.394C0.852908 7.78161 0.804902 7.63083 1.07516 7.79228C1.60181 8.10841 1.90016 8.92772 2.06125 10.0564C2.28919 11.7011 3.07579 12.7316 4.3556 13.2245C5.54692 13.68 6.8669 13.6654 8.04783 13.1836C8.69254 12.9201 9.2576 12.5026 9.70708 11.8262C10.4951 10.64 10.2586 9.89958 10.6654 8.88078C11.0196 7.99106 12.0149 7.99106 12.3698 8.88078C12.7766 9.89958 12.5402 10.64 13.3278 11.8262C13.777 12.5026 14.3427 12.9201 14.9874 13.1836C16.1683 13.6656 17.4884 13.6802 18.6797 13.2245C19.9584 12.7316 20.7468 11.7011 20.9744 10.0564C21.1344 8.92772 21.4335 8.10805 21.9597 7.79228C22.23 7.63083 22.1827 7.78161 22.1827 7.394Z" fill="#787878"/>
</svg>
