<svg width="40" height="40" viewBox="0 0 40 40" fill="none" xmlns="http://www.w3.org/2000/svg">
<path d="M38.5 8.005V1.6C38.5 0.715 37.785 0 36.9 0H3.10003C2.21503 0 1.50003 0.715 1.50003 1.6V8.005C0.66503 8.055 3.09796e-05 8.75 3.09796e-05 9.6V16.185C-0.00317104 17.3952 0.241878 18.5932 0.720031 19.705C0.93503 20.215 1.20003 20.695 1.50003 21.15V38.4C1.50003 39.28 2.21503 40 3.10003 40H36.9C37.785 40 38.5 39.285 38.5 38.4V21.15C38.8047 20.6938 39.0659 20.21 39.28 19.705C39.755 18.59 40 17.405 40 16.185V9.6C40 8.75 39.335 8.055 38.5 8.005ZM5.10003 3.6H34.9V8H5.10003V3.6ZM23.2 36.405H16.8V31.2H23.2V36.405ZM34.92 36.405H26.4V29.6C26.4 28.715 25.685 28 24.8 28H15.2C14.315 28 13.6 28.715 13.6 29.6V36.405H5.10003V24.295C5.24503 24.365 5.39503 24.435 5.55003 24.495C6.66503 24.965 7.85003 25.2 9.07002 25.2C10.29 25.2 11.47 24.965 12.59 24.495C13.28 24.205 13.93 23.835 14.525 23.39C14.535 23.385 14.545 23.385 14.555 23.39C15.1519 23.8369 15.8018 24.2081 16.49 24.495C17.605 24.965 18.79 25.2 20.01 25.2C21.23 25.2 22.41 24.965 23.53 24.495C24.22 24.205 24.87 23.835 25.465 23.39C25.475 23.385 25.485 23.385 25.495 23.39C26.0919 23.8369 26.7418 24.2081 27.43 24.495C28.545 24.965 29.73 25.2 30.95 25.2C32.17 25.2 33.35 24.965 34.47 24.495C34.62 24.43 34.77 24.365 34.92 24.295V36.405V36.405ZM36.4 16.185C36.4 19.175 33.95 21.6 30.935 21.6C28.895 21.6 27.115 20.495 26.175 18.855C26.03 18.605 25.77 18.45 25.48 18.45H25.45C25.165 18.45 24.9 18.605 24.755 18.855C24.2753 19.6916 23.5827 20.3862 22.7475 20.8684C21.9123 21.3505 20.9644 21.6029 20 21.6C17.965 21.6 16.19 20.5 15.25 18.865C15.1 18.61 14.83 18.45 14.535 18.45C14.24 18.45 13.965 18.61 13.82 18.865C13.3375 19.6984 12.644 20.3899 11.8092 20.8701C10.9745 21.3502 10.028 21.602 9.06502 21.6C6.05003 21.6 3.60003 19.175 3.60003 16.185V11.625C3.60003 11.61 3.61003 11.6 3.62503 11.6H36.375C36.39 11.6 36.4 11.61 36.4 11.625V16.185Z" fill="url(#paint0_linear_2_45)"/>
<defs>
<linearGradient id="paint0_linear_2_45" x1="1.57329e-08" y1="20" x2="40" y2="20" gradientUnits="userSpaceOnUse">
<stop stop-color="#3374AB"/>
<stop offset="0.598958" stop-color="#5AB1F3"/>
<stop offset="1" stop-color="#6BD8FE"/>
</linearGradient>
</defs>
</svg>
