<svg width="23" height="23" viewBox="0 0 23 23" fill="none" xmlns="http://www.w3.org/2000/svg">
<path d="M16.2917 10.5417C16.6175 10.5417 16.9337 10.58 17.25 10.6279V6.00875L10.0625 2.875L2.875 6.00875V10.7142C2.875 15.065 5.94167 19.1379 10.0625 20.125C10.5896 20.0004 11.0975 19.8183 11.5958 19.5979C10.9346 18.6588 10.5417 17.5183 10.5417 16.2917C10.5417 13.1196 13.1196 10.5417 16.2917 10.5417Z" fill="#787878"/>
<path d="M16.2913 12.457C14.1734 12.457 12.458 14.1724 12.458 16.2904C12.458 18.4083 14.1734 20.1237 16.2913 20.1237C18.4093 20.1237 20.1247 18.4083 20.1247 16.2904C20.1247 14.1724 18.4093 12.457 16.2913 12.457ZM16.2913 13.7795C16.8855 13.7795 17.3647 14.2683 17.3647 14.8529C17.3647 15.4374 16.8759 15.9262 16.2913 15.9262C15.7068 15.9262 15.218 15.4374 15.218 14.8529C15.218 14.2683 15.6972 13.7795 16.2913 13.7795ZM16.2913 18.9258C15.4001 18.9258 14.6238 18.4849 14.1447 17.8045C14.1926 17.1145 15.5918 16.7695 16.2913 16.7695C16.9909 16.7695 18.3901 17.1145 18.438 17.8045C17.9588 18.4849 17.1826 18.9258 16.2913 18.9258Z" fill="#787878"/>
</svg>
