<svg width="34" height="32" viewBox="0 0 34 32" fill="none" xmlns="http://www.w3.org/2000/svg">
<path d="M6 4C6 2.93913 6.42143 1.92172 7.17157 1.17157C7.92172 0.421427 8.93913 0 10 0H24C25.0609 0 26.0783 0.421427 26.8284 1.17157C27.5786 1.92172 28 2.93913 28 4V18H34V22C34 23.5913 33.3679 25.1174 32.2426 26.2426C31.1174 27.3679 29.5913 28 28 28H20V23C20 21.6739 19.4732 20.4021 18.5355 19.4645C17.5979 18.5268 16.3261 18 15 18H6V4ZM28 26C29.0609 26 30.0783 25.5786 30.8284 24.8284C31.5786 24.0783 32 23.0609 32 22V20H28V26ZM13 6C12.7348 6 12.4804 6.10536 12.2929 6.29289C12.1054 6.48043 12 6.73478 12 7C12 7.26522 12.1054 7.51957 12.2929 7.70711C12.4804 7.89464 12.7348 8 13 8H21C21.2652 8 21.5196 7.89464 21.7071 7.70711C21.8946 7.51957 22 7.26522 22 7C22 6.73478 21.8946 6.48043 21.7071 6.29289C21.5196 6.10536 21.2652 6 21 6H13ZM13 10C12.7348 10 12.4804 10.1054 12.2929 10.2929C12.1054 10.4804 12 10.7348 12 11C12 11.2652 12.1054 11.5196 12.2929 11.7071C12.4804 11.8946 12.7348 12 13 12H21C21.2652 12 21.5196 11.8946 21.7071 11.7071C21.8946 11.5196 22 11.2652 22 11C22 10.7348 21.8946 10.4804 21.7071 10.2929C21.5196 10.1054 21.2652 10 21 10H13ZM15 20C15.7956 20 16.5587 20.3161 17.1213 20.8787C17.6839 21.4413 18 22.2044 18 23V29C18 29.7956 17.6839 30.5587 17.1213 31.1213C16.5587 31.6839 15.7956 32 15 32H3C2.20435 32 1.44129 31.6839 0.87868 31.1213C0.316071 30.5587 0 29.7956 0 29V23C0 22.2044 0.316071 21.4413 0.87868 20.8787C1.44129 20.3161 2.20435 20 3 20H15ZM16 29V27C15.2044 27 14.4413 27.3161 13.8787 27.8787C13.3161 28.4413 13 29.2044 13 30H15C15 29.7348 15.1054 29.4804 15.2929 29.2929C15.4804 29.1054 15.7348 29 16 29ZM16 23C15.7348 23 15.4804 22.8946 15.2929 22.7071C15.1054 22.5196 15 22.2652 15 22H13C13 22.7956 13.3161 23.5587 13.8787 24.1213C14.4413 24.6839 15.2044 25 16 25V23ZM3 22C3 22.2652 2.89464 22.5196 2.70711 22.7071C2.51957 22.8946 2.26522 23 2 23V25C2.79565 25 3.55871 24.6839 4.12132 24.1213C4.68393 23.5587 5 22.7956 5 22H3ZM2 29C2.26522 29 2.51957 29.1054 2.70711 29.2929C2.89464 29.4804 3 29.7348 3 30H5C5 29.2044 4.68393 28.4413 4.12132 27.8787C3.55871 27.3161 2.79565 27 2 27V29ZM9 23C8.20435 23 7.44129 23.3161 6.87868 23.8787C6.31607 24.4413 6 25.2044 6 26C6 26.7956 6.31607 27.5587 6.87868 28.1213C7.44129 28.6839 8.20435 29 9 29C9.79565 29 10.5587 28.6839 11.1213 28.1213C11.6839 27.5587 12 26.7956 12 26C12 25.2044 11.6839 24.4413 11.1213 23.8787C10.5587 23.3161 9.79565 23 9 23Z" fill="url(#paint0_linear_2_63)"/>
<defs>
<linearGradient id="paint0_linear_2_63" x1="1.33729e-08" y1="16" x2="34" y2="16" gradientUnits="userSpaceOnUse">
<stop stop-color="#3374AB"/>
<stop offset="0.598958" stop-color="#5AB1F3"/>
<stop offset="1" stop-color="#6BD8FE"/>
</linearGradient>
</defs>
</svg>
